<svg xmlns="http://www.w3.org/2000/svg" xmlns:xlink="http://www.w3.org/1999/xlink" width="500" zoomAndPan="magnify" viewBox="0 0 375 374.999991" height="500" preserveAspectRatio="xMidYMid meet" version="1.2"><defs><clipPath id="e2dbdcff89"><path d="M 187.5 0 C 83.945312 0 0 83.945312 0 187.5 C 0 291.054688 83.945312 375 187.5 375 C 291.054688 375 375 291.054688 375 187.5 C 375 83.945312 291.054688 0 187.5 0 Z M 187.5 0 "/></clipPath><clipPath id="d9cf0e7cb5"><path d="M 90 41.269531 L 284.890625 41.269531 L 284.890625 333 L 90 333 Z M 90 41.269531 "/></clipPath></defs><g id="9625a3d755"><g clip-rule="nonzero" clip-path="url(#e2dbdcff89)"><rect x="0" width="375" y="0" height="374.999991" style="fill:#feaf00;fill-opacity:1;stroke:none;"/></g><g clip-rule="nonzero" clip-path="url(#d9cf0e7cb5)"><path style=" stroke:none;fill-rule:nonzero;fill:#ffffff;fill-opacity:1;" d="M 147.144531 211.414062 L 147.144531 210.238281 C 147.144531 188.867188 158.710938 174.554688 180.078125 162.398438 C 206.75 146.710938 213.609375 138.28125 213.609375 121.417969 C 213.609375 105.539062 200.859375 94.359375 183.226562 94.359375 C 167.539062 94.359375 156.945312 101.613281 150.878906 115.925781 C 145.1875 128.671875 134.007812 135.144531 120.28125 135.144531 C 101.847656 135.144531 90.085938 123.773438 90.28125 106.125 C 90.28125 97.695312 92.242188 90.042969 96.363281 82.59375 C 109.492188 57.894531 142.246094 41.023438 186.746094 41.023438 C 246.15625 41.023438 285.175781 72.007812 285.175781 119.648438 C 285.175781 148.476562 271.660156 168.472656 242.832031 185.136719 C 217.269531 199.875 211.414062 206.984375 207.527344 219.792969 C 207.328125 220.445312 207.136719 221.109375 206.949219 221.796875 C 202.4375 235.523438 193.226562 242.777344 178.132812 242.777344 C 159.296875 242.789062 147.144531 230.046875 147.144531 211.414062 Z M 142.046875 297.691406 C 142.046875 278.085938 158.515625 262.59375 179.097656 262.59375 C 199.488281 262.59375 216.152344 278.085938 216.152344 297.691406 C 216.152344 317.496094 199.488281 332.988281 179.097656 332.988281 C 158.515625 332.988281 142.046875 317.496094 142.046875 297.691406 Z M 142.046875 297.691406 "/></g></g></svg>